<svg width="20" height="20" viewBox="0 0 20 20" fill="none" xmlns="http://www.w3.org/2000/svg">
<rect y="2.85834" width="20" height="14.2857" rx="2" fill="white"/>
<mask id="mask0_1505_6180" style="mask-type:alpha" maskUnits="userSpaceOnUse" x="0" y="2" width="20" height="16">
<rect y="2.85834" width="20" height="14.2857" rx="2" fill="white"/>
</mask>
<g mask="url(#mask0_1505_6180)">
<rect y="2.85834" width="20" height="14.2857" fill="#0A17A7"/>
<path fill-rule="evenodd" clip-rule="evenodd" d="M-0.916316 1.48946L7.61881 7.24647V1.90598H12.3807V7.24644L20.9158 1.48946L21.9809 3.06858L15.2328 7.62026H19.9998V12.3822H15.2328L21.9809 16.9338L20.9158 18.513L12.3807 12.756V18.0965H7.61881V12.7559L-0.916312 18.513L-1.98144 16.9338L4.76669 12.3822H-0.000237703V7.62026H4.76671L-1.98145 3.06858L-0.916316 1.48946Z" fill="white"/>
<path fill-rule="evenodd" clip-rule="evenodd" d="M22.6132 1.2771C22.6975 1.40527 22.662 1.57752 22.5338 1.66183L13.4871 7.6134C13.359 7.69772 13.1867 7.66217 13.1024 7.53401C13.0181 7.40584 13.0536 7.23359 13.1818 7.14928L22.2285 1.19771C22.3566 1.11339 22.5289 1.14894 22.6132 1.2771Z" fill="#DB1F35"/>
<path fill-rule="evenodd" clip-rule="evenodd" d="M22.6351 18.2638C22.7209 18.1366 22.6873 17.964 22.56 17.8782L14.4502 12.4119C14.3229 12.3262 14.1503 12.3598 14.0646 12.487C13.9788 12.6142 14.0124 12.7868 14.1396 12.8726L22.2495 18.3389C22.3767 18.4246 22.5494 18.391 22.6351 18.2638Z" fill="#DB1F35"/>
<path fill-rule="evenodd" clip-rule="evenodd" d="M-2.97159 1.50953C-2.88585 1.38231 -2.71321 1.34868 -2.586 1.43442L5.8733 7.13545C6.00052 7.22119 6.03415 7.39382 5.94841 7.52104C5.86267 7.64826 5.69004 7.68189 5.56282 7.59615L-2.89648 1.89512C-3.0237 1.80938 -3.05732 1.63675 -2.97159 1.50953Z" fill="#DB1F35"/>
<path fill-rule="evenodd" clip-rule="evenodd" d="M-2.97273 18.9479C-2.88795 19.0757 -2.71557 19.1107 -2.58772 19.0259L6.78909 12.8076C6.91694 12.7228 6.95185 12.5504 6.86707 12.4226C6.78228 12.2947 6.6099 12.2598 6.48205 12.3446L-2.89475 18.5629C-3.02261 18.6477 -3.05752 18.82 -2.97273 18.9479Z" fill="#DB1F35"/>
<path fill-rule="evenodd" clip-rule="evenodd" d="M0 11.4298H8.57143V17.1441H11.4286V11.4298H20V8.57262H11.4286V2.85834H8.57143V8.57262H0V11.4298Z" fill="#E6273E"/>
</g>
</svg>
