<svg width="155" height="16" viewBox="0 0 155 16" fill="none" xmlns="http://www.w3.org/2000/svg">
<path d="M2.562 10.892C2.51 11.0133 2.484 11.126 2.484 11.23C2.484 11.4727 2.63133 11.724 2.926 11.984C3.238 12.244 3.63667 12.4867 4.122 12.712C4.62467 12.92 5.188 13.0933 5.812 13.232C6.436 13.3707 7.06867 13.44 7.71 13.44C9.35667 13.44 10.544 13.1973 11.272 12.712C12.0173 12.2267 12.39 11.6027 12.39 10.84C12.39 10.476 12.2947 10.1727 12.104 9.93C11.9307 9.68733 11.6793 9.50533 11.35 9.384C11.038 9.24533 10.6653 9.15 10.232 9.098C9.816 9.046 9.36533 9.02 8.88 9.02C8.08267 9.02 7.23333 9.02 6.332 9.02C5.448 9.00267 4.63333 8.89 3.888 8.682C3.14267 8.45667 2.52733 8.09267 2.042 7.59C1.55667 7.08733 1.314 6.342 1.314 5.354C1.314 4.73 1.48733 4.16667 1.834 3.664C2.18067 3.144 2.64867 2.702 3.238 2.338C3.84467 1.974 4.55533 1.688 5.37 1.48C6.18467 1.272 7.06867 1.168 8.022 1.168C8.76733 1.168 9.40867 1.22 9.946 1.324C10.5007 1.428 10.9773 1.54067 11.376 1.662C11.7747 1.78333 12.104 1.896 12.364 2C12.624 2.104 12.8407 2.156 13.014 2.156C13.2047 2.156 13.3433 2.12133 13.43 2.052C13.5167 1.98267 13.6033 1.90467 13.69 1.818L14.002 1.948L12.572 4.938L12.286 4.756C12.3033 4.704 12.312 4.59133 12.312 4.418C12.312 4.29667 12.208 4.14933 12 3.976C11.792 3.80267 11.4973 3.638 11.116 3.482C10.7347 3.30867 10.2753 3.17 9.738 3.066C9.218 2.94467 8.646 2.884 8.022 2.884C6.618 2.884 5.5 3.10933 4.668 3.56C3.85333 4.01067 3.446 4.6 3.446 5.328C3.446 5.65733 3.53267 5.926 3.706 6.134C3.89667 6.32467 4.148 6.48067 4.46 6.602C4.78933 6.706 5.162 6.77533 5.578 6.81C6.01133 6.84467 6.47067 6.862 6.956 6.862C7.77067 6.862 8.62 6.87933 9.504 6.914C10.388 6.93133 11.2027 7.06133 11.948 7.304C12.6933 7.54667 13.3087 7.93667 13.794 8.474C14.2793 9.01133 14.522 9.8 14.522 10.84C14.522 11.3947 14.3747 11.932 14.08 12.452C13.8027 12.9547 13.378 13.4053 12.806 13.804C12.234 14.2027 11.5233 14.5147 10.674 14.74C9.842 14.9653 8.87133 15.078 7.762 15.078C6.826 15.078 6.01133 15.0087 5.318 14.87C4.642 14.714 4.06133 14.5407 3.576 14.35C3.09067 14.142 2.692 13.96 2.38 13.804C2.068 13.6307 1.81667 13.544 1.626 13.544C1.45267 13.544 1.27067 13.648 1.08 13.856L0.82 13.7L2.224 10.71L2.562 10.892ZM25.7538 2.26C25.7538 2.06933 25.7105 1.922 25.6238 1.818C25.5371 1.69667 25.3725 1.636 25.1298 1.636V1.324H36.0238C36.4745 1.324 36.7605 1.28933 36.8818 1.22C37.0031 1.13333 37.0638 0.994666 37.0638 0.804H37.3758V3.768H37.0638C37.0638 3.54267 36.9945 3.36933 36.8558 3.248C36.7171 3.10933 36.4485 3.04 36.0498 3.04H27.9378V7.148H33.2158C33.5278 7.148 33.7791 7.096 33.9698 6.992C34.1778 6.888 34.2818 6.69733 34.2818 6.42H34.5938V9.566H34.2818C34.2818 9.306 34.2038 9.124 34.0478 9.02C33.8918 8.916 33.6318 8.864 33.2678 8.864H27.9378V13.284H36.6218C36.9858 13.284 37.2545 13.2233 37.4278 13.102C37.6011 12.9633 37.6878 12.7293 37.6878 12.4H37.9998V15.494H37.6878C37.6878 15.1647 37.3845 15 36.7778 15H25.1298V14.688C25.3725 14.688 25.5371 14.636 25.6238 14.532C25.7105 14.4107 25.7538 14.2547 25.7538 14.064V2.26ZM52.3776 14.688C52.6203 14.688 52.7849 14.636 52.8716 14.532C52.9583 14.4107 53.0016 14.2547 53.0016 14.064V3.04H48.6336C48.3043 3.04 48.0703 3.092 47.9316 3.196C47.7929 3.28267 47.7236 3.456 47.7236 3.716H47.4116V0.647999H47.7236C47.7236 1.09867 48.0269 1.324 48.6336 1.324H59.5536C60.1603 1.324 60.4636 1.09867 60.4636 0.647999H60.7756V3.716H60.4636C60.4636 3.456 60.3943 3.28267 60.2556 3.196C60.1169 3.092 59.8829 3.04 59.5536 3.04H55.1856V14.064C55.1856 14.2547 55.2289 14.4107 55.3156 14.532C55.4023 14.636 55.5669 14.688 55.8096 14.688V15H52.3776V14.688ZM79.5561 9.644L76.6181 3.508L73.9141 9.644H79.5561ZM72.1981 13.44C72.1288 13.596 72.0508 13.7693 71.9641 13.96C71.8775 14.1507 71.8341 14.298 71.8341 14.402C71.8341 14.5927 71.9815 14.688 72.2761 14.688V15H69.0781V14.688C69.1821 14.688 69.2688 14.6793 69.3381 14.662C69.4248 14.6447 69.5028 14.5927 69.5721 14.506C69.6415 14.4193 69.7195 14.298 69.8061 14.142C69.8928 13.9687 70.0055 13.7433 70.1441 13.466L74.8501 2.962C74.9888 2.66733 75.0928 2.45067 75.1621 2.312C75.2315 2.156 75.2661 2.03467 75.2661 1.948C75.2661 1.74 75.1101 1.636 74.7981 1.636V1.324H78.5941V1.636C78.3168 1.636 78.1781 1.74 78.1781 1.948C78.1781 2.052 78.2215 2.19067 78.3081 2.364C78.3948 2.52 78.5075 2.74533 78.6461 3.04L83.6381 13.388C83.7941 13.7 83.9155 13.9427 84.0021 14.116C84.0888 14.2893 84.1668 14.4193 84.2361 14.506C84.3228 14.5927 84.4095 14.6447 84.4961 14.662C84.5828 14.6793 84.7041 14.688 84.8601 14.688V15H81.2461V14.688C81.4541 14.688 81.5928 14.662 81.6621 14.61C81.7315 14.5407 81.7661 14.4453 81.7661 14.324C81.7661 14.2373 81.7401 14.1507 81.6881 14.064C81.6535 13.96 81.5668 13.752 81.4281 13.44L80.4401 11.36H73.0821L72.1981 13.44ZM103.008 7.304C104.065 7.304 104.811 7.10467 105.244 6.706C105.677 6.30733 105.894 5.76133 105.894 5.068C105.894 4.392 105.695 3.898 105.296 3.586C104.915 3.25667 104.152 3.092 103.008 3.092H97.1319V7.304H103.008ZM94.9479 2.26C94.9479 2.06933 94.9046 1.922 94.8179 1.818C94.7313 1.69667 94.5666 1.636 94.3239 1.636V1.324H103.06C104.776 1.324 106.007 1.64467 106.752 2.286C107.497 2.92733 107.87 3.82867 107.87 4.99C107.87 6.29 107.497 7.29533 106.752 8.006C106.024 8.71667 104.819 9.072 103.138 9.072H97.1319V14.064C97.1319 14.2547 97.1753 14.4107 97.2619 14.532C97.3486 14.636 97.5133 14.688 97.7559 14.688V15H94.3239V14.688C94.5666 14.688 94.7313 14.636 94.8179 14.532C94.9046 14.4107 94.9479 14.2547 94.9479 14.064V2.26ZM126.72 9.644L123.782 3.508L121.078 9.644H126.72ZM119.362 13.44C119.292 13.596 119.214 13.7693 119.128 13.96C119.041 14.1507 118.998 14.298 118.998 14.402C118.998 14.5927 119.145 14.688 119.44 14.688V15H116.242V14.688C116.346 14.688 116.432 14.6793 116.502 14.662C116.588 14.6447 116.666 14.5927 116.736 14.506C116.805 14.4193 116.883 14.298 116.97 14.142C117.056 13.9687 117.169 13.7433 117.308 13.466L122.014 2.962C122.152 2.66733 122.256 2.45067 122.326 2.312C122.395 2.156 122.43 2.03467 122.43 1.948C122.43 1.74 122.274 1.636 121.962 1.636V1.324H125.758V1.636C125.48 1.636 125.342 1.74 125.342 1.948C125.342 2.052 125.385 2.19067 125.472 2.364C125.558 2.52 125.671 2.74533 125.81 3.04L130.802 13.388C130.958 13.7 131.079 13.9427 131.166 14.116C131.252 14.2893 131.33 14.4193 131.4 14.506C131.486 14.5927 131.573 14.6447 131.66 14.662C131.746 14.6793 131.868 14.688 132.024 14.688V15H128.41V14.688C128.618 14.688 128.756 14.662 128.826 14.61C128.895 14.5407 128.93 14.4453 128.93 14.324C128.93 14.2373 128.904 14.1507 128.852 14.064C128.817 13.96 128.73 13.752 128.592 13.44L127.604 11.36H120.246L119.362 13.44ZM145.18 14.688C145.422 14.688 145.587 14.636 145.674 14.532C145.76 14.4107 145.804 14.2547 145.804 14.064V9.332L140.786 2.52C140.543 2.208 140.344 1.98267 140.188 1.844C140.049 1.70533 139.876 1.636 139.668 1.636V1.324H143.594V1.636C143.16 1.65333 142.944 1.77467 142.944 2C142.944 2.08667 142.996 2.19067 143.1 2.312C143.204 2.416 143.299 2.53733 143.386 2.676L146.974 7.564L150.77 2.52C150.839 2.43333 150.917 2.338 151.004 2.234C151.09 2.13 151.134 2.03467 151.134 1.948C151.134 1.74 150.943 1.636 150.562 1.636V1.324H154.306V1.636C154.063 1.636 153.864 1.714 153.708 1.87C153.569 2.00867 153.378 2.22533 153.136 2.52L147.988 9.332V14.064C147.988 14.2547 148.031 14.4107 148.118 14.532C148.204 14.636 148.369 14.688 148.612 14.688V15H145.18V14.688Z" fill="#142729"/>
</svg>
