<svg width="34" height="24" viewBox="0 0 34 24" fill="none" xmlns="http://www.w3.org/2000/svg">
<path d="M0 4C0 1.79086 1.79086 0 4 0H30C32.2091 0 34 1.79086 34 4V20C34 22.2091 32.2091 24 30 24H4C1.79086 24 0 22.2091 0 20V4Z" fill="white"/>
<path fill-rule="evenodd" clip-rule="evenodd" d="M10.7501 15.8582H8.69031L7.14576 9.79235C7.07245 9.51332 6.91679 9.26664 6.68782 9.15038C6.11639 8.85821 5.48672 8.62568 4.7998 8.50841V8.27487H8.11789C8.57583 8.27487 8.91929 8.62568 8.97653 9.0331L9.77793 13.4086L11.8367 8.27487H13.8392L10.7501 15.8582ZM14.984 15.8582H13.0388L14.6406 8.27487H16.5858L14.984 15.8582ZM19.1025 10.3757C19.1597 9.96725 19.5032 9.73372 19.9039 9.73372C20.5336 9.67508 21.2195 9.79235 21.7919 10.0835L22.1354 8.45079C21.5629 8.21725 20.9333 8.09998 20.3619 8.09998C18.4738 8.09998 17.1 9.15038 17.1 10.6082C17.1 11.7173 18.0731 12.2996 18.7601 12.6504C19.5032 13.0002 19.7894 13.2337 19.7322 13.5835C19.7322 14.1082 19.1597 14.3418 18.5883 14.3418C17.9014 14.3418 17.2145 14.1669 16.5858 13.8747L16.2424 15.5084C16.9293 15.7996 17.6724 15.9169 18.3594 15.9169C20.4763 15.9745 21.7919 14.9251 21.7919 13.35C21.7919 11.3664 19.1025 11.2502 19.1025 10.3757ZM28.5998 15.8582L27.0553 8.27487H25.3962C25.0528 8.27487 24.7093 8.50841 24.5948 8.85821L21.7347 15.8582H23.7372L24.1369 14.7502H26.5973L26.8263 15.8582H28.5998ZM25.6824 10.3171L26.2539 13.1751H24.6521L25.6824 10.3171Z" fill="#172B85"/>
<path d="M4 1H30V-1H4V1ZM33 4V20H35V4H33ZM30 23H4V25H30V23ZM1 20V4H-1V20H1ZM4 23C2.34315 23 1 21.6569 1 20H-1C-1 22.7614 1.23858 25 4 25V23ZM33 20C33 21.6569 31.6569 23 30 23V25C32.7614 25 35 22.7614 35 20H33ZM30 1C31.6569 1 33 2.34315 33 4H35C35 1.23858 32.7614 -1 30 -1V1ZM4 -1C1.23858 -1 -1 1.23858 -1 4H1C1 2.34315 2.34315 1 4 1V-1Z" fill="#F3F4F6"/>
</svg>
